<svg width="34" height="32" viewBox="0 0 34 32" fill="none" xmlns="http://www.w3.org/2000/svg">
<rect x="5" y="6" width="24" height="18" rx="2" fill="url(#paint0_linear_4620_126547)"/>
<g filter="url(#filter0_bi_4620_126547)">
<path d="M11.9 2.5C11.9 1.11929 10.7583 0 9.35 0C7.94167 0 6.8 1.11929 6.8 2.5V21.4645L4.35312 19.0656C3.35729 18.0893 1.74271 18.0893 0.746878 19.0656C-0.248959 20.0419 -0.248959 21.6248 0.746878 22.6011L7.54688 29.2678C8.54272 30.2441 10.1573 30.2441 11.1531 29.2678L17.9531 22.6011C18.949 21.6248 18.949 20.0419 17.9531 19.0656C16.9573 18.0893 15.3427 18.0893 14.3469 19.0656L11.9 21.4645V2.5Z" fill="#1D1D1D" fill-opacity="0.05"/>
<path d="M11.9 2.5C11.9 1.11929 10.7583 0 9.35 0C7.94167 0 6.8 1.11929 6.8 2.5V21.4645L4.35312 19.0656C3.35729 18.0893 1.74271 18.0893 0.746878 19.0656C-0.248959 20.0419 -0.248959 21.6248 0.746878 22.6011L7.54688 29.2678C8.54272 30.2441 10.1573 30.2441 11.1531 29.2678L17.9531 22.6011C18.949 21.6248 18.949 20.0419 17.9531 19.0656C16.9573 18.0893 15.3427 18.0893 14.3469 19.0656L11.9 21.4645V2.5Z" fill="url(#paint1_linear_4620_126547)" fill-opacity="0.2"/>
<path d="M27.2 8.53553V27.5C27.2 28.8807 26.0583 30 24.65 30C23.2417 30 22.1 28.8807 22.1 27.5V8.53553L19.6531 10.9344C18.6573 11.9107 17.0427 11.9107 16.0469 10.9344C15.051 9.95812 15.051 8.37521 16.0469 7.3989L22.8469 0.732234C23.8427 -0.244077 25.4573 -0.244077 26.4531 0.732234L33.2531 7.3989C34.249 8.37521 34.249 9.95812 33.2531 10.9344C32.2573 11.9107 30.6427 11.9107 29.6469 10.9344L27.2 8.53553Z" fill="#1D1D1D" fill-opacity="0.05"/>
<path d="M27.2 8.53553V27.5C27.2 28.8807 26.0583 30 24.65 30C23.2417 30 22.1 28.8807 22.1 27.5V8.53553L19.6531 10.9344C18.6573 11.9107 17.0427 11.9107 16.0469 10.9344C15.051 9.95812 15.051 8.37521 16.0469 7.3989L22.8469 0.732234C23.8427 -0.244077 25.4573 -0.244077 26.4531 0.732234L33.2531 7.3989C34.249 8.37521 34.249 9.95812 33.2531 10.9344C32.2573 11.9107 30.6427 11.9107 29.6469 10.9344L27.2 8.53553Z" fill="url(#paint2_linear_4620_126547)" fill-opacity="0.2"/>
<path d="M6.72999 21.5359C6.75875 21.5641 6.8016 21.5723 6.83873 21.5567C6.87585 21.5411 6.9 21.5047 6.9 21.4645V2.5C6.9 1.17637 7.99503 0.1 9.35 0.1C10.705 0.1 11.8 1.17637 11.8 2.5V21.4645C11.8 21.5047 11.8242 21.5411 11.8613 21.5567C11.8984 21.5723 11.9413 21.5641 11.97 21.5359L14.4169 19.137C15.3738 18.1988 16.9262 18.1988 17.8831 19.137C18.839 20.0741 18.839 21.5926 17.8831 22.5297L11.0831 29.1964C10.1262 30.1345 8.57384 30.1345 7.61688 29.1964L0.816885 22.5297C-0.138962 21.5926 -0.138962 20.0741 0.816885 19.137C1.77384 18.1988 3.32616 18.1988 4.28311 19.137L6.72999 21.5359ZM27.27 8.46413C27.2413 8.43594 27.1984 8.42774 27.1613 8.44334C27.1242 8.45893 27.1 8.49527 27.1 8.53553V27.5C27.1 28.8236 26.005 29.9 24.65 29.9C23.295 29.9 22.2 28.8236 22.2 27.5V8.53553C22.2 8.49527 22.1758 8.45893 22.1387 8.44334C22.1016 8.42774 22.0587 8.43594 22.03 8.46413L19.5831 10.863C18.6262 11.8012 17.0738 11.8012 16.1169 10.863C15.161 9.92592 15.161 8.40741 16.1169 7.47031L22.9169 0.803642C23.8738 -0.134546 25.4262 -0.134546 26.3831 0.803642L33.1831 7.47031C34.139 8.40741 34.139 9.92592 33.1831 10.863C32.2262 11.8012 30.6738 11.8012 29.7169 10.863L27.27 8.46413Z" stroke="url(#paint3_linear_4620_126547)" stroke-opacity="0.1" stroke-width="0.2" stroke-linecap="round" stroke-linejoin="round"/>
</g>
<defs>
<filter id="filter0_bi_4620_126547" x="-3" y="-3" width="40" height="36" filterUnits="userSpaceOnUse" color-interpolation-filters="sRGB">
<feFlood flood-opacity="0" result="BackgroundImageFix"/>
<feGaussianBlur in="BackgroundImageFix" stdDeviation="1.5"/>
<feComposite in2="SourceAlpha" operator="in" result="effect1_backgroundBlur_4620_126547"/>
<feBlend mode="normal" in="SourceGraphic" in2="effect1_backgroundBlur_4620_126547" result="shape"/>
<feColorMatrix in="SourceAlpha" type="matrix" values="0 0 0 0 0 0 0 0 0 0 0 0 0 0 0 0 0 0 127 0" result="hardAlpha"/>
<feOffset dy="0.5"/>
<feGaussianBlur stdDeviation="1"/>
<feComposite in2="hardAlpha" operator="arithmetic" k2="-1" k3="1"/>
<feColorMatrix type="matrix" values="0 0 0 0 1 0 0 0 0 1 0 0 0 0 1 0 0 0 0.15 0"/>
<feBlend mode="normal" in2="shape" result="effect2_innerShadow_4620_126547"/>
</filter>
<linearGradient id="paint0_linear_4620_126547" x1="5" y1="15" x2="29" y2="15" gradientUnits="userSpaceOnUse">
<stop stop-color="#89FFF0"/>
<stop offset="1" stop-color="#B6FF9B"/>
</linearGradient>
<linearGradient id="paint1_linear_4620_126547" x1="1.41667" y1="6" x2="38.2811" y2="11.8027" gradientUnits="userSpaceOnUse">
<stop stop-color="#FE82DB"/>
<stop offset="1" stop-color="#68E4FF"/>
</linearGradient>
<linearGradient id="paint2_linear_4620_126547" x1="1.41667" y1="6" x2="38.2811" y2="11.8027" gradientUnits="userSpaceOnUse">
<stop stop-color="#FE82DB"/>
<stop offset="1" stop-color="#68E4FF"/>
</linearGradient>
<linearGradient id="paint3_linear_4620_126547" x1="1.0625" y1="1.36364" x2="34" y2="1.36364" gradientUnits="userSpaceOnUse">
<stop stop-color="#FD84DC"/>
<stop offset="1" stop-color="#7FD6FA"/>
</linearGradient>
</defs>
</svg>
